<?xml version="1.0" standalone="no"?>
<!DOCTYPE svg PUBLIC "-//W3C//DTD SVG 20010904//EN"
 "http://www.w3.org/TR/2001/REC-SVG-20010904/DTD/svg10.dtd">
<svg version="1.0" xmlns="http://www.w3.org/2000/svg"
 width="352.000000pt" height="310.000000pt" viewBox="0 0 352.000000 310.000000"
 preserveAspectRatio="xMidYMid meet">

<g transform="translate(0.000000,310.000000) scale(0.100000,-0.100000)"
fill="#000000" stroke="none">
<path d="M2062 2819 c-12 -22 -22 -45 -22 -50 0 -5 23 -21 52 -35 137 -70 267
-201 333 -339 57 -116 75 -194 75 -325 0 -131 -18 -209 -75 -326 -79 -164
-243 -311 -413 -370 -223 -77 -458 -48 -654 82 -90 60 -196 176 -243 266 -21
40 -39 75 -41 76 -6 8 -74 -20 -74 -29 0 -6 -5 -7 -12 -3 -24 15 3 -61 49
-140 29 -50 79 -112 128 -162 179 -181 400 -265 655 -251 125 8 197 25 308 78
277 129 457 379 492 682 41 354 -145 694 -467 856 -34 17 -64 31 -66 31 -2 0
-13 -18 -25 -41z"/>
<path d="M2205 2291 c-117 -33 -175 -107 -175 -226 0 -150 113 -241 274 -221
62 8 80 25 92 84 8 40 -6 41 -30 2 -28 -49 -58 -63 -123 -58 -50 4 -60 9 -94
45 -48 52 -67 131 -51 212 21 97 69 141 158 141 59 0 94 -21 114 -70 7 -17 16
-27 21 -23 12 13 -2 101 -17 107 -27 11 -139 15 -169 7z"/>
<path d="M1120 2281 c0 -5 11 -12 24 -15 27 -7 37 -29 116 -256 28 -80 53
-151 55 -159 11 -28 31 11 95 179 77 202 85 218 115 232 14 6 25 15 25 20 0
12 -138 10 -145 -2 -3 -5 0 -10 7 -10 8 0 22 -6 32 -13 16 -12 13 -23 -39
-162 -31 -82 -58 -151 -59 -153 -4 -3 -106 292 -106 306 0 6 9 14 20 17 43 14
16 25 -60 25 -44 0 -80 -4 -80 -9z"/>
<path d="M1639 2261 c-36 -36 -39 -88 -8 -137 l20 -33 -40 -36 c-48 -44 -59
-85 -38 -138 39 -92 150 -100 227 -15 l27 29 17 -26 c28 -42 116 -86 116 -57
0 4 -23 36 -51 70 l-51 63 35 57 c19 31 47 63 61 70 43 22 30 32 -44 32 -68 0
-91 -12 -50 -25 26 -8 26 -41 -1 -84 l-20 -34 -54 53 -53 53 40 38 c36 34 40
42 34 71 -15 77 -110 105 -167 49z m105 -13 c23 -32 20 -73 -8 -105 l-25 -28
-26 26 c-30 29 -37 88 -15 114 18 22 57 18 74 -7z m-1 -236 c31 -32 57 -63 57
-69 0 -21 -57 -53 -94 -53 -51 0 -86 36 -86 88 0 40 30 92 54 92 6 0 37 -26
69 -58z"/>
<path d="M100 1041 c0 -5 7 -11 15 -15 22 -8 22 -254 0 -262 -35 -14 -10 -24
55 -24 67 0 93 12 50 23 -19 5 -20 14 -20 130 0 117 1 126 20 132 11 4 18 11
15 16 -8 12 -135 12 -135 0z"/>
<path d="M270 1045 c0 -3 9 -14 20 -25 17 -17 20 -33 20 -121 0 -98 1 -101 29
-130 25 -25 37 -29 83 -29 97 0 128 45 128 185 0 74 3 86 20 97 33 21 23 28
-35 28 -54 0 -73 -13 -36 -25 40 -12 36 -190 -5 -236 -26 -29 -78 -25 -103 7
-18 23 -21 41 -21 120 0 83 2 95 20 106 34 22 23 28 -50 28 -38 0 -70 -2 -70
-5z"/>
<path d="M616 1041 c-3 -5 3 -11 14 -14 19 -5 20 -14 20 -132 0 -118 -1 -127
-20 -132 -39 -10 -8 -23 56 -23 60 0 83 11 49 24 -11 4 -15 20 -15 56 0 66 21
67 54 2 13 -27 31 -54 40 -61 15 -13 96 -28 96 -19 0 3 -15 21 -32 40 -18 19
-42 51 -52 71 l-19 37 26 21 c19 14 27 30 27 53 0 46 -19 67 -71 77 -58 11
-166 11 -173 0z m157 -28 c30 -34 31 -70 3 -97 -43 -44 -56 -35 -56 37 0 35 3
67 7 70 11 12 29 8 46 -10z"/>
<path d="M926 1041 c-3 -5 3 -11 14 -14 19 -5 20 -14 20 -132 0 -118 -1 -127
-20 -132 -40 -11 -7 -23 61 -23 66 0 91 12 49 23 -19 5 -20 14 -20 130 0 117
1 126 20 132 11 4 18 11 15 16 -8 12 -132 12 -139 0z"/>
<path d="M1144 1026 c-21 -17 -28 -33 -28 -59 0 -42 19 -66 80 -102 27 -16 46
-35 50 -50 15 -61 -65 -75 -101 -18 -25 40 -35 41 -35 4 0 -44 23 -61 84 -61
62 0 101 24 111 68 10 47 -9 78 -72 114 -49 29 -58 39 -58 63 0 55 69 60 95 8
l14 -28 4 28 c6 49 -2 57 -62 57 -43 0 -61 -5 -82 -24z"/>
<path d="M1460 1044 c0 -4 8 -13 18 -20 14 -10 18 -31 20 -111 4 -103 -7 -153
-33 -153 -8 0 -15 -4 -15 -10 0 -6 45 -10 115 -10 l114 0 10 38 c6 20 11 40
11 45 0 16 -17 5 -33 -23 -19 -32 -53 -46 -86 -35 -20 6 -21 14 -21 130 0 115
1 124 20 130 41 13 18 25 -50 25 -38 0 -70 -3 -70 -6z"/>
<path d="M1726 1041 c-3 -5 3 -11 14 -14 19 -5 20 -14 20 -132 0 -118 -1 -127
-20 -132 -51 -13 -10 -23 99 -23 l119 0 10 40 c12 47 -7 57 -26 15 -12 -26
-44 -39 -83 -33 -22 3 -24 9 -27 66 l-3 62 30 0 c20 0 34 -7 41 -20 18 -34 30
-22 30 30 0 54 -8 62 -28 30 -8 -13 -23 -20 -42 -20 -30 0 -30 1 -30 54 0 45
3 56 19 61 27 8 68 -10 76 -34 11 -35 26 -23 23 17 l-3 37 -107 3 c-58 1 -109
-1 -112 -7z"/>
<path d="M2006 1041 c-3 -5 4 -11 17 -15 21 -5 97 -112 97 -138 0 -19 -78
-116 -100 -123 -38 -12 -20 -25 35 -25 57 0 65 5 40 24 -13 10 -11 17 11 54
14 23 28 42 32 42 4 0 18 -19 31 -42 21 -37 22 -43 7 -53 -25 -19 -8 -25 66
-25 65 0 89 12 49 25 -11 3 -40 39 -66 80 l-46 74 36 49 c20 29 46 53 61 56
40 10 18 26 -37 26 -49 0 -58 -7 -38 -27 8 -8 6 -19 -5 -41 -23 -45 -30 -45
-55 -2 -19 35 -20 41 -7 46 9 3 16 10 16 15 0 12 -137 12 -144 0z"/>
<path d="M2475 1038 c-31 -17 -45 -39 -45 -73 0 -40 13 -58 75 -98 44 -28 50
-36 50 -67 0 -26 -5 -36 -18 -38 -35 -7 -67 8 -82 38 -22 43 -39 39 -30 -7 9
-47 17 -53 83 -53 46 0 58 4 83 29 54 54 36 113 -48 155 -71 36 -79 106 -12
106 23 0 34 -7 47 -30 20 -35 32 -38 32 -9 0 43 -18 59 -68 59 -26 0 -56 -6
-67 -12z"/>
<path d="M2904 1013 c-9 -21 -34 -81 -55 -133 -22 -52 -48 -102 -59 -112 -11
-9 -20 -19 -20 -22 0 -3 25 -6 55 -6 30 0 55 5 55 10 0 6 -7 10 -15 10 -22 0
-28 22 -15 54 9 25 14 27 57 24 44 -3 48 -5 57 -37 7 -26 7 -36 -2 -39 -32
-10 -5 -22 53 -22 36 0 65 3 65 6 0 3 -9 13 -20 22 -11 10 -42 75 -69 147 -27
71 -54 131 -60 133 -6 2 -19 -14 -27 -35z m35 -135 c1 -5 -15 -8 -35 -8 -30 0
-35 3 -29 18 4 9 12 30 18 47 l10 29 18 -39 c10 -22 18 -43 18 -47z"/>
<path d="M3275 1027 c-21 -17 -27 -32 -27 -62 0 -42 21 -66 94 -110 58 -35 45
-101 -19 -93 -18 2 -34 14 -48 35 -27 43 -39 41 -32 -4 8 -46 19 -53 85 -53
46 0 58 4 83 29 53 54 35 110 -51 157 -54 29 -72 62 -49 90 20 25 71 14 87
-18 18 -39 35 -36 27 5 -10 47 -11 47 -70 47 -42 0 -60 -5 -80 -23z"/>
<path d="M2665 800 c-4 -6 -4 -22 -1 -36 5 -20 12 -25 34 -22 23 2 27 8 27 33
0 25 -4 31 -27 33 -14 2 -29 -2 -33 -8z"/>
<path d="M3131 796 c-18 -22 3 -56 34 -56 18 0 26 7 31 24 3 14 3 30 -1 35 -9
16 -51 13 -64 -3z"/>
<path d="M1160 455 l0 -85 60 0 c33 0 60 4 60 10 0 6 -20 10 -45 10 l-45 0 0
75 c0 60 -3 75 -15 75 -12 0 -15 -16 -15 -85z"/>
<path d="M1331 459 c-36 -94 -35 -89 -17 -89 8 0 17 11 20 25 5 21 12 25 46
25 34 0 41 -4 46 -25 3 -14 12 -25 20 -25 19 0 18 4 -17 93 -42 104 -57 103
-98 -4z m66 16 c11 -34 11 -35 -17 -35 -28 0 -28 1 -17 35 6 19 13 35 17 35 4
0 11 -16 17 -35z"/>
<path d="M1465 528 c2 -7 13 -46 25 -85 26 -90 43 -94 65 -15 9 31 17 62 19
67 2 6 12 -19 23 -55 27 -93 43 -90 75 15 20 66 22 85 12 85 -8 0 -21 -24 -31
-60 -9 -33 -19 -58 -22 -54 -3 3 -13 29 -21 57 -10 33 -22 53 -33 55 -9 2 -17
-2 -17 -8 0 -7 -7 -37 -17 -68 -18 -62 -18 -62 -43 36 -6 25 -17 42 -25 42 -8
0 -13 -6 -10 -12z"/>
<path d="M1790 455 c0 -69 3 -85 15 -85 11 0 15 11 15 40 l0 40 45 0 c25 0 45
5 45 10 0 6 -20 10 -45 10 -41 0 -45 2 -45 25 0 23 4 25 45 25 25 0 45 5 45
10 0 6 -27 10 -60 10 l-60 0 0 -85z"/>
<path d="M1940 455 c0 -69 3 -85 15 -85 12 0 15 16 15 85 0 69 -3 85 -15 85
-12 0 -15 -16 -15 -85z"/>
<path d="M2020 455 c0 -69 3 -85 15 -85 10 0 15 10 15 33 0 42 3 45 39 39 25
-3 30 -9 33 -35 2 -17 9 -32 16 -35 15 -5 17 59 1 75 -8 8 -8 13 0 17 15 9 14
49 -1 64 -7 7 -36 12 -65 12 l-53 0 0 -85z m103 53 c8 -25 -6 -38 -39 -38 -30
0 -34 3 -34 25 0 22 4 25 34 25 19 0 36 -6 39 -12z"/>
<path d="M2190 455 c0 -69 3 -85 15 -85 12 0 15 15 16 68 l1 67 25 -67 c14
-38 31 -68 38 -68 6 0 23 33 38 73 l26 72 0 -72 c1 -58 4 -73 16 -73 12 0 15
16 15 85 0 82 -1 85 -23 85 -20 0 -27 -10 -46 -65 -13 -36 -25 -65 -26 -65 -2
0 -13 29 -25 65 -19 56 -25 65 -46 65 -23 0 -24 -2 -24 -85z"/>
<path d="M1277 243 c-11 -10 -8 -81 3 -88 6 -4 10 9 10 32 l0 38 22 -37 c12
-21 26 -38 30 -38 4 0 7 24 7 53 -2 49 -2 50 -8 14 l-6 -38 -19 35 c-19 36
-27 42 -39 29z"/>
<path d="M1380 206 c0 -25 5 -48 10 -51 6 -4 10 13 10 44 0 28 -4 51 -10 51
-5 0 -10 -20 -10 -44z"/>
<path d="M1423 243 c13 -3 17 -15 17 -49 0 -24 5 -44 10 -44 6 0 10 20 10 44
0 34 4 46 18 49 9 3 -3 5 -28 5 -25 0 -37 -2 -27 -5z"/>
<path d="M1584 236 c-9 -24 3 -46 26 -46 25 0 17 -18 -14 -30 l-21 -9 21 0
c30 -1 46 22 42 61 -2 25 -8 34 -26 36 -13 2 -25 -3 -28 -12z m42 -7 c10 -17
-13 -36 -27 -22 -12 12 -4 33 11 33 5 0 12 -5 16 -11z"/>
<path d="M1664 237 c-3 -8 -4 -30 -2 -49 2 -28 7 -33 28 -33 23 0 25 4 25 45
0 39 -3 45 -23 48 -13 2 -24 -3 -28 -11z m41 -37 c0 -18 -5 -35 -12 -37 -15
-5 -26 31 -18 58 10 31 30 17 30 -21z"/>
<path d="M1755 240 c-3 -5 -1 -10 4 -10 15 0 14 -53 -1 -68 -9 -9 -6 -12 17
-12 23 0 26 3 17 12 -7 7 -12 29 -12 50 0 36 -12 49 -25 28z"/>
<path d="M1827 243 c-2 -4 -4 -26 -3 -48 1 -36 4 -40 26 -40 23 0 25 4 25 45
0 38 -3 45 -22 48 -11 2 -23 0 -26 -5z m35 -18 c0 -5 -5 -11 -11 -13 -6 -2
-11 4 -11 13 0 9 5 15 11 13 6 -2 11 -8 11 -13z m8 -44 c0 -14 -18 -23 -30
-16 -6 4 -8 11 -5 16 8 12 35 12 35 0z"/>
<path d="M1912 238 c-14 -14 -16 -57 -3 -76 14 -23 46 -10 49 21 3 22 -1 27
-17 27 -28 0 -27 18 2 30 21 8 21 9 2 9 -12 1 -26 -4 -33 -11z m36 -55 c-5
-25 -28 -28 -28 -4 0 12 6 21 16 21 9 0 14 -7 12 -17z"/>
<path d="M1987 243 c-2 -4 -4 -26 -3 -48 1 -36 4 -40 26 -40 23 0 25 4 25 45
0 38 -3 45 -22 48 -11 2 -23 0 -26 -5z m35 -18 c0 -5 -5 -11 -11 -13 -6 -2
-11 4 -11 13 0 9 5 15 11 13 6 -2 11 -8 11 -13z m8 -50 c0 -8 -6 -15 -14 -15
-17 0 -28 14 -19 24 12 12 33 6 33 -9z"/>
<path d="M2067 243 c-2 -4 -4 -26 -3 -48 1 -36 4 -40 26 -40 23 0 25 4 25 45
0 38 -3 45 -22 48 -11 2 -23 0 -26 -5z m35 -18 c0 -5 -5 -11 -11 -13 -6 -2
-11 4 -11 13 0 9 5 15 11 13 6 -2 11 -8 11 -13z m8 -44 c0 -14 -18 -23 -30
-16 -6 4 -8 11 -5 16 8 12 35 12 35 0z"/>
<path d="M2155 240 c-3 -5 -1 -10 4 -10 15 0 14 -53 -1 -68 -9 -9 -6 -12 17
-12 23 0 26 3 17 12 -7 7 -12 29 -12 50 0 36 -12 49 -25 28z"/>
<path d="M2232 238 c-14 -14 -16 -57 -3 -76 14 -23 46 -10 49 21 3 22 -1 27
-17 27 -28 0 -27 18 2 30 21 8 21 9 2 9 -12 1 -26 -4 -33 -11z m36 -55 c-5
-25 -28 -28 -28 -4 0 12 6 21 16 21 9 0 14 -7 12 -17z"/>
</g>
</svg>
